# xmcd
#
# Track frame offsets: 
#        150
#        31800
#        70575
#        99450
#        125475
#        158850
#        186150
#        220575
#        250050
#        279075
#
# Disc length: 4081 seconds
#
# Revision: 1
# Processed by: cddbd v1.5.2PL0 Copyright (c) Steve Scherf et al.
# Submitted via: ExactAudioCopy v1.0b3
#
DISCID=7d0fef0a
DTITLE=Scott Whitfield - To Be There
DYEAR=1997
DGENRE=Jazz
TTITLE0=Your Dream Or Mine?
TTITLE1=To Be There
TTITLE2=I Could Never Forget You
TTITLE3=Two Of A Kind
TTITLE4=You're A Groove
TTITLE5=Nova's Bossa
TTITLE6=Since The First Time I Saw You
TTITLE7=Twinkletoes
TTITLE8=Lady In Pink
TTITLE9=Love For Sale
EXTD=YEAR: 1997
EXTT0=
EXTT1=
EXTT2=
EXTT3=
EXTT4=
EXTT5=
EXTT6=
EXTT7=
EXTT8=
EXTT9=
PLAYORDER=
